<svg xmlns="http://www.w3.org/2000/svg" width="400" height="400" viewBox="0 0 400 400" preserveAspectRatio="none">
  <defs>
    <linearGradient id="c-gold" x1="0" y1="0" x2="1" y2="1">
      <stop offset="0%" stop-color="#f5d089"/>
      <stop offset="50%" stop-color="#d4a574"/>
      <stop offset="100%" stop-color="#8b6914"/>
    </linearGradient>
    <pattern id="c-pattern" x="0" y="0" width="40" height="40" patternUnits="userSpaceOnUse">
      <path d="M0 20 Q10 10 20 20 T40 20" fill="none" stroke="#f5d089" stroke-width="1.5" opacity="0.4"/>
      <path d="M20 0 Q10 10 20 20 T20 40" fill="none" stroke="#f5d089" stroke-width="1.5" opacity="0.4"/>
    </pattern>
  </defs>
  <rect x="0" y="0" width="400" height="400" fill="none" stroke="url(#c-gold)" stroke-width="28"/>
  <rect x="14" y="14" width="372" height="372" fill="none" stroke="#f5d089" stroke-width="2"/>
  <rect x="20" y="20" width="360" height="360" fill="url(#c-pattern)"/>
  <rect x="28" y="28" width="344" height="344" fill="none" stroke="#8b6914" stroke-width="1" opacity="0.6"/>
  <g fill="#d4a574">
    <path d="M0 0 L60 0 Q30 15 30 45 Q15 30 0 60 Z"/>
    <path d="M400 0 L340 0 Q370 15 370 45 Q385 30 400 60 Z"/>
    <path d="M0 400 L60 400 Q30 385 30 355 Q15 370 0 340 Z"/>
    <path d="M400 400 L340 400 Q370 385 370 355 Q385 370 400 340 Z"/>
  </g>
</svg>
